<mxfile host="app.diagrams.net" agent="Mozilla/5.0 (Windows NT 10.0; Win64; x64; rv:131.0) Gecko/20100101 Firefox/131.0" version="24.7.17">
  <diagram name="Page-1" id="4U2lWu9b1NIufgimmCVh">
    <mxGraphModel dx="174" dy="559" grid="1" gridSize="10" guides="1" tooltips="1" connect="1" arrows="1" fold="1" page="1" pageScale="1" pageWidth="850" pageHeight="1100" math="0" shadow="0">
      <root>
        <mxCell id="0" />
        <mxCell id="1" parent="0" />
        <mxCell id="hHbTxy1jI1l-UyztQn6d-1" value="User Agent" style="rounded=0;whiteSpace=wrap;html=1;" parent="1" vertex="1">
          <mxGeometry x="1040" y="160" width="120" height="60" as="geometry" />
        </mxCell>
        <mxCell id="hHbTxy1jI1l-UyztQn6d-2" value="Client" style="rounded=0;whiteSpace=wrap;html=1;" parent="1" vertex="1">
          <mxGeometry x="1205" y="160" width="120" height="60" as="geometry" />
        </mxCell>
        <mxCell id="hHbTxy1jI1l-UyztQn6d-3" value="Auth Server" style="rounded=0;whiteSpace=wrap;html=1;" parent="1" vertex="1">
          <mxGeometry x="1360" y="160" width="120" height="60" as="geometry" />
        </mxCell>
        <mxCell id="hHbTxy1jI1l-UyztQn6d-4" value="Resource Server" style="rounded=0;whiteSpace=wrap;html=1;" parent="1" vertex="1">
          <mxGeometry x="1520" y="160" width="120" height="60" as="geometry" />
        </mxCell>
        <mxCell id="hHbTxy1jI1l-UyztQn6d-6" value="Resource Owner" style="shape=umlActor;verticalLabelPosition=bottom;verticalAlign=top;html=1;outlineConnect=0;" parent="1" vertex="1">
          <mxGeometry x="930" y="160" width="20" height="40" as="geometry" />
        </mxCell>
        <mxCell id="hHbTxy1jI1l-UyztQn6d-10" style="rounded=0;orthogonalLoop=1;jettySize=auto;html=1;endArrow=none;endFill=0;" parent="1" edge="1">
          <mxGeometry relative="1" as="geometry">
            <mxPoint x="939" y="480" as="targetPoint" />
            <mxPoint x="939" y="220" as="sourcePoint" />
          </mxGeometry>
        </mxCell>
        <mxCell id="hHbTxy1jI1l-UyztQn6d-11" style="rounded=0;orthogonalLoop=1;jettySize=auto;html=1;endArrow=none;endFill=0;" parent="1" source="hHbTxy1jI1l-UyztQn6d-46" edge="1">
          <mxGeometry relative="1" as="geometry">
            <mxPoint x="1100" y="480" as="targetPoint" />
            <mxPoint x="1100" y="680" as="sourcePoint" />
          </mxGeometry>
        </mxCell>
        <mxCell id="hHbTxy1jI1l-UyztQn6d-14" style="rounded=0;orthogonalLoop=1;jettySize=auto;html=1;endArrow=none;endFill=0;exitX=0.5;exitY=1;exitDx=0;exitDy=0;" parent="1" source="hHbTxy1jI1l-UyztQn6d-4" edge="1">
          <mxGeometry relative="1" as="geometry">
            <mxPoint x="1580" y="480" as="targetPoint" />
            <mxPoint x="1579.38" y="240" as="sourcePoint" />
          </mxGeometry>
        </mxCell>
        <mxCell id="hHbTxy1jI1l-UyztQn6d-16" value="Login" style="html=1;verticalAlign=bottom;endArrow=block;curved=0;rounded=0;entryX=0;entryY=0;entryDx=0;entryDy=5;" parent="1" target="hHbTxy1jI1l-UyztQn6d-15" edge="1">
          <mxGeometry relative="1" as="geometry">
            <mxPoint x="940" y="255" as="sourcePoint" />
          </mxGeometry>
        </mxCell>
        <mxCell id="hHbTxy1jI1l-UyztQn6d-19" value="" style="rounded=0;orthogonalLoop=1;jettySize=auto;html=1;endArrow=none;endFill=0;exitX=0.5;exitY=1;exitDx=0;exitDy=0;" parent="1" source="hHbTxy1jI1l-UyztQn6d-1" target="hHbTxy1jI1l-UyztQn6d-15" edge="1">
          <mxGeometry relative="1" as="geometry">
            <mxPoint x="1099.38" y="850" as="targetPoint" />
            <mxPoint x="1100" y="220" as="sourcePoint" />
          </mxGeometry>
        </mxCell>
        <mxCell id="hHbTxy1jI1l-UyztQn6d-15" value="" style="html=1;points=[[0,0,0,0,5],[0,1,0,0,-5],[1,0,0,0,5],[1,1,0,0,-5]];perimeter=orthogonalPerimeter;outlineConnect=0;targetShapes=umlLifeline;portConstraint=eastwest;newEdgeStyle={&quot;curved&quot;:0,&quot;rounded&quot;:0};" parent="1" vertex="1">
          <mxGeometry x="1095" y="250" width="10" height="20" as="geometry" />
        </mxCell>
        <mxCell id="hHbTxy1jI1l-UyztQn6d-24" value="&lt;div&gt;Generate code_verifier&amp;nbsp;&lt;/div&gt;&lt;div&gt;&amp;amp; code_challenge&lt;br&gt;&lt;/div&gt;" style="html=1;align=left;spacingLeft=2;endArrow=block;rounded=0;edgeStyle=orthogonalEdgeStyle;curved=0;rounded=0;exitX=1;exitY=1;exitDx=0;exitDy=-5;exitPerimeter=0;entryX=1;entryY=0;entryDx=0;entryDy=5;entryPerimeter=0;" parent="1" source="hHbTxy1jI1l-UyztQn6d-15" target="hHbTxy1jI1l-UyztQn6d-23" edge="1">
          <mxGeometry relative="1" as="geometry">
            <mxPoint x="1100" y="280" as="sourcePoint" />
            <Array as="points">
              <mxPoint x="1120" y="265" />
              <mxPoint x="1120" y="285" />
            </Array>
          </mxGeometry>
        </mxCell>
        <mxCell id="hHbTxy1jI1l-UyztQn6d-25" value="" style="rounded=0;orthogonalLoop=1;jettySize=auto;html=1;endArrow=none;endFill=0;exitX=0.5;exitY=1;exitDx=0;exitDy=0;" parent="1" source="hHbTxy1jI1l-UyztQn6d-15" target="hHbTxy1jI1l-UyztQn6d-23" edge="1">
          <mxGeometry relative="1" as="geometry">
            <mxPoint x="1099.38" y="850" as="targetPoint" />
            <mxPoint x="1100" y="270" as="sourcePoint" />
          </mxGeometry>
        </mxCell>
        <mxCell id="hHbTxy1jI1l-UyztQn6d-23" value="" style="html=1;points=[[0,0,0,0,5],[0,1,0,0,-5],[1,0,0,0,5],[1,1,0,0,-5]];perimeter=orthogonalPerimeter;outlineConnect=0;targetShapes=umlLifeline;portConstraint=eastwest;newEdgeStyle={&quot;curved&quot;:0,&quot;rounded&quot;:0};" parent="1" vertex="1">
          <mxGeometry x="1095" y="280" width="10" height="60" as="geometry" />
        </mxCell>
        <mxCell id="hHbTxy1jI1l-UyztQn6d-27" value="GET &quot;/login?code_challenge&quot;" style="html=1;verticalAlign=bottom;endArrow=block;curved=0;rounded=0;entryX=0;entryY=0;entryDx=0;entryDy=5;" parent="1" source="hHbTxy1jI1l-UyztQn6d-23" target="hHbTxy1jI1l-UyztQn6d-26" edge="1">
          <mxGeometry relative="1" as="geometry">
            <mxPoint x="1105" y="335" as="sourcePoint" />
          </mxGeometry>
        </mxCell>
        <mxCell id="hHbTxy1jI1l-UyztQn6d-28" value="OK Authorization Endpoint" style="html=1;verticalAlign=bottom;endArrow=open;dashed=1;endSize=8;curved=0;rounded=0;exitX=0;exitY=1;exitDx=0;exitDy=-5;entryX=1;entryY=0;entryDx=0;entryDy=5;entryPerimeter=0;exitPerimeter=0;" parent="1" source="hHbTxy1jI1l-UyztQn6d-26" target="hHbTxy1jI1l-UyztQn6d-34" edge="1">
          <mxGeometry relative="1" as="geometry">
            <mxPoint x="1105" y="370" as="targetPoint" />
            <mxPoint x="1260.0000000000002" y="370" as="sourcePoint" />
          </mxGeometry>
        </mxCell>
        <mxCell id="hHbTxy1jI1l-UyztQn6d-29" value="" style="rounded=0;orthogonalLoop=1;jettySize=auto;html=1;endArrow=none;endFill=0;exitX=0.5;exitY=1;exitDx=0;exitDy=0;" parent="1" source="hHbTxy1jI1l-UyztQn6d-2" target="hHbTxy1jI1l-UyztQn6d-26" edge="1">
          <mxGeometry relative="1" as="geometry">
            <mxPoint x="1264.38" y="850" as="targetPoint" />
            <mxPoint x="1265" y="220" as="sourcePoint" />
          </mxGeometry>
        </mxCell>
        <mxCell id="hHbTxy1jI1l-UyztQn6d-26" value="" style="html=1;points=[[0,0,0,0,5],[0,1,0,0,-5],[1,0,0,0,5],[1,1,0,0,-5]];perimeter=orthogonalPerimeter;outlineConnect=0;targetShapes=umlLifeline;portConstraint=eastwest;newEdgeStyle={&quot;curved&quot;:0,&quot;rounded&quot;:0};" parent="1" vertex="1">
          <mxGeometry x="1260" y="330" width="10" height="40" as="geometry" />
        </mxCell>
        <mxCell id="hHbTxy1jI1l-UyztQn6d-37" value="" style="rounded=0;orthogonalLoop=1;jettySize=auto;html=1;endArrow=none;endFill=0;exitX=0.5;exitY=1;exitDx=0;exitDy=0;" parent="1" source="hHbTxy1jI1l-UyztQn6d-23" target="hHbTxy1jI1l-UyztQn6d-34" edge="1">
          <mxGeometry relative="1" as="geometry">
            <mxPoint x="1099.38" y="850" as="targetPoint" />
            <mxPoint x="1100" y="320" as="sourcePoint" />
          </mxGeometry>
        </mxCell>
        <mxCell id="hHbTxy1jI1l-UyztQn6d-34" value="" style="html=1;points=[[0,0,0,0,5],[0,1,0,0,-5],[1,0,0,0,5],[1,1,0,0,-5]];perimeter=orthogonalPerimeter;outlineConnect=0;targetShapes=umlLifeline;portConstraint=eastwest;newEdgeStyle={&quot;curved&quot;:0,&quot;rounded&quot;:0};" parent="1" vertex="1">
          <mxGeometry x="1095" y="360" width="10" height="40" as="geometry" />
        </mxCell>
        <mxCell id="hHbTxy1jI1l-UyztQn6d-41" value="GET &quot;/openid-connect/auth?client_id&amp;amp;redirect_uri...&quot;" style="html=1;verticalAlign=bottom;endArrow=block;curved=0;rounded=0;entryX=0;entryY=0;entryDx=0;entryDy=5;exitX=1;exitY=1;exitDx=0;exitDy=-5;exitPerimeter=0;" parent="1" source="hHbTxy1jI1l-UyztQn6d-34" target="hHbTxy1jI1l-UyztQn6d-40" edge="1">
          <mxGeometry relative="1" as="geometry">
            <mxPoint x="1350" y="395" as="sourcePoint" />
          </mxGeometry>
        </mxCell>
        <mxCell id="hHbTxy1jI1l-UyztQn6d-42" value="OK Login Page" style="html=1;verticalAlign=bottom;endArrow=open;dashed=1;endSize=8;curved=0;rounded=0;exitX=0;exitY=1;exitDx=0;exitDy=-5;entryX=1;entryY=0;entryDx=0;entryDy=5;entryPerimeter=0;labelBorderColor=none;labelBackgroundColor=#FFFFFF;" parent="1" source="hHbTxy1jI1l-UyztQn6d-40" target="hHbTxy1jI1l-UyztQn6d-46" edge="1">
          <mxGeometry relative="1" as="geometry">
            <mxPoint x="1120" y="415" as="targetPoint" />
          </mxGeometry>
        </mxCell>
        <mxCell id="hHbTxy1jI1l-UyztQn6d-43" value="" style="rounded=0;orthogonalLoop=1;jettySize=auto;html=1;endArrow=none;endFill=0;exitX=0.5;exitY=1;exitDx=0;exitDy=0;" parent="1" source="hHbTxy1jI1l-UyztQn6d-3" target="hHbTxy1jI1l-UyztQn6d-40" edge="1">
          <mxGeometry relative="1" as="geometry">
            <mxPoint x="1419.38" y="850" as="targetPoint" />
            <mxPoint x="1420" y="220" as="sourcePoint" />
          </mxGeometry>
        </mxCell>
        <mxCell id="hHbTxy1jI1l-UyztQn6d-40" value="" style="html=1;points=[[0,0,0,0,5],[0,1,0,0,-5],[1,0,0,0,5],[1,1,0,0,-5]];perimeter=orthogonalPerimeter;outlineConnect=0;targetShapes=umlLifeline;portConstraint=eastwest;newEdgeStyle={&quot;curved&quot;:0,&quot;rounded&quot;:0};" parent="1" vertex="1">
          <mxGeometry x="1415" y="390" width="10" height="30" as="geometry" />
        </mxCell>
        <mxCell id="hHbTxy1jI1l-UyztQn6d-47" value="" style="rounded=0;orthogonalLoop=1;jettySize=auto;html=1;endArrow=none;endFill=0;exitX=0.5;exitY=1;exitDx=0;exitDy=0;" parent="1" source="hHbTxy1jI1l-UyztQn6d-34" target="hHbTxy1jI1l-UyztQn6d-46" edge="1">
          <mxGeometry relative="1" as="geometry">
            <mxPoint x="1099.38" y="850" as="targetPoint" />
            <mxPoint x="1100" y="400" as="sourcePoint" />
          </mxGeometry>
        </mxCell>
        <mxCell id="hHbTxy1jI1l-UyztQn6d-46" value="" style="html=1;points=[[0,0,0,0,5],[0,1,0,0,-5],[1,0,0,0,5],[1,1,0,0,-5]];perimeter=orthogonalPerimeter;outlineConnect=0;targetShapes=umlLifeline;portConstraint=eastwest;newEdgeStyle={&quot;curved&quot;:0,&quot;rounded&quot;:0};" parent="1" vertex="1">
          <mxGeometry x="1095" y="410" width="10" height="20" as="geometry" />
        </mxCell>
        <mxCell id="hHbTxy1jI1l-UyztQn6d-50" value="User Agent" style="rounded=0;whiteSpace=wrap;html=1;" parent="1" vertex="1">
          <mxGeometry x="1040" y="520" width="120" height="60" as="geometry" />
        </mxCell>
        <mxCell id="hHbTxy1jI1l-UyztQn6d-51" value="Client" style="rounded=0;whiteSpace=wrap;html=1;" parent="1" vertex="1">
          <mxGeometry x="1205" y="520" width="120" height="60" as="geometry" />
        </mxCell>
        <mxCell id="hHbTxy1jI1l-UyztQn6d-52" value="Auth Server" style="rounded=0;whiteSpace=wrap;html=1;" parent="1" vertex="1">
          <mxGeometry x="1360" y="520" width="120" height="60" as="geometry" />
        </mxCell>
        <mxCell id="hHbTxy1jI1l-UyztQn6d-53" value="Resource Server" style="rounded=0;whiteSpace=wrap;html=1;" parent="1" vertex="1">
          <mxGeometry x="1520" y="520" width="120" height="60" as="geometry" />
        </mxCell>
        <mxCell id="hHbTxy1jI1l-UyztQn6d-54" value="Resource Owner" style="shape=umlActor;verticalLabelPosition=bottom;verticalAlign=top;html=1;outlineConnect=0;" parent="1" vertex="1">
          <mxGeometry x="930" y="520" width="20" height="40" as="geometry" />
        </mxCell>
        <mxCell id="hHbTxy1jI1l-UyztQn6d-55" style="rounded=0;orthogonalLoop=1;jettySize=auto;html=1;endArrow=none;endFill=0;" parent="1" edge="1">
          <mxGeometry relative="1" as="geometry">
            <mxPoint x="939" y="710" as="targetPoint" />
            <mxPoint x="939" y="580" as="sourcePoint" />
          </mxGeometry>
        </mxCell>
        <mxCell id="hHbTxy1jI1l-UyztQn6d-59" style="rounded=0;orthogonalLoop=1;jettySize=auto;html=1;endArrow=none;endFill=0;exitX=0.5;exitY=1;exitDx=0;exitDy=0;" parent="1" source="hHbTxy1jI1l-UyztQn6d-53" edge="1">
          <mxGeometry relative="1" as="geometry">
            <mxPoint x="1580" y="720" as="targetPoint" />
            <mxPoint x="1579.38" y="600" as="sourcePoint" />
          </mxGeometry>
        </mxCell>
        <mxCell id="hHbTxy1jI1l-UyztQn6d-61" value="" style="rounded=0;orthogonalLoop=1;jettySize=auto;html=1;endArrow=none;endFill=0;exitX=0.5;exitY=1;exitDx=0;exitDy=0;" parent="1" source="hHbTxy1jI1l-UyztQn6d-93" edge="1">
          <mxGeometry relative="1" as="geometry">
            <mxPoint x="1100" y="720" as="targetPoint" />
            <mxPoint x="1100" y="580" as="sourcePoint" />
          </mxGeometry>
        </mxCell>
        <mxCell id="hHbTxy1jI1l-UyztQn6d-68" value="" style="rounded=0;orthogonalLoop=1;jettySize=auto;html=1;endArrow=none;endFill=0;exitX=0.5;exitY=1;exitDx=0;exitDy=0;" parent="1" source="hHbTxy1jI1l-UyztQn6d-51" edge="1">
          <mxGeometry relative="1" as="geometry">
            <mxPoint x="1265" y="720" as="targetPoint" />
            <mxPoint x="1265" y="720" as="sourcePoint" />
          </mxGeometry>
        </mxCell>
        <mxCell id="hHbTxy1jI1l-UyztQn6d-76" value="" style="rounded=0;orthogonalLoop=1;jettySize=auto;html=1;endArrow=none;endFill=0;exitX=0.5;exitY=1;exitDx=0;exitDy=0;" parent="1" source="hHbTxy1jI1l-UyztQn6d-89" edge="1">
          <mxGeometry relative="1" as="geometry">
            <mxPoint x="1420" y="720" as="targetPoint" />
            <mxPoint x="1420" y="580" as="sourcePoint" />
          </mxGeometry>
        </mxCell>
        <mxCell id="hHbTxy1jI1l-UyztQn6d-82" value="Input Credentials" style="html=1;verticalAlign=bottom;endArrow=block;curved=0;rounded=0;entryX=0;entryY=0;entryDx=0;entryDy=5;" parent="1" target="hHbTxy1jI1l-UyztQn6d-81" edge="1">
          <mxGeometry relative="1" as="geometry">
            <mxPoint x="940" y="605" as="sourcePoint" />
          </mxGeometry>
        </mxCell>
        <mxCell id="hHbTxy1jI1l-UyztQn6d-84" value="" style="rounded=0;orthogonalLoop=1;jettySize=auto;html=1;endArrow=none;endFill=0;exitX=0.5;exitY=1;exitDx=0;exitDy=0;" parent="1" source="hHbTxy1jI1l-UyztQn6d-50" target="hHbTxy1jI1l-UyztQn6d-81" edge="1">
          <mxGeometry relative="1" as="geometry">
            <mxPoint x="1100" y="840" as="targetPoint" />
            <mxPoint x="1100" y="580" as="sourcePoint" />
          </mxGeometry>
        </mxCell>
        <mxCell id="hHbTxy1jI1l-UyztQn6d-86" value="POST &quot;/login-actions&quot;" style="html=1;verticalAlign=bottom;endArrow=block;curved=0;rounded=0;entryX=0;entryY=0;entryDx=0;entryDy=5;exitX=1;exitY=1;exitDx=0;exitDy=-5;exitPerimeter=0;" parent="1" source="hHbTxy1jI1l-UyztQn6d-81" target="hHbTxy1jI1l-UyztQn6d-85" edge="1">
          <mxGeometry relative="1" as="geometry">
            <mxPoint x="1345" y="630" as="sourcePoint" />
          </mxGeometry>
        </mxCell>
        <mxCell id="hHbTxy1jI1l-UyztQn6d-88" value="" style="rounded=0;orthogonalLoop=1;jettySize=auto;html=1;endArrow=none;endFill=0;exitX=0.5;exitY=1;exitDx=0;exitDy=0;" parent="1" source="hHbTxy1jI1l-UyztQn6d-52" target="hHbTxy1jI1l-UyztQn6d-85" edge="1">
          <mxGeometry relative="1" as="geometry">
            <mxPoint x="1420" y="840" as="targetPoint" />
            <mxPoint x="1420" y="580" as="sourcePoint" />
          </mxGeometry>
        </mxCell>
        <mxCell id="hHbTxy1jI1l-UyztQn6d-85" value="" style="html=1;points=[[0,0,0,0,5],[0,1,0,0,-5],[1,0,0,0,5],[1,1,0,0,-5]];perimeter=orthogonalPerimeter;outlineConnect=0;targetShapes=umlLifeline;portConstraint=eastwest;newEdgeStyle={&quot;curved&quot;:0,&quot;rounded&quot;:0};" parent="1" vertex="1">
          <mxGeometry x="1415" y="620" width="10" height="20" as="geometry" />
        </mxCell>
        <mxCell id="hHbTxy1jI1l-UyztQn6d-90" value="&lt;div&gt;Generates Code&amp;nbsp;&lt;/div&gt;&lt;div&gt;from Code Challenge&lt;/div&gt;&amp;nbsp;with EdDSA" style="html=1;align=left;spacingLeft=2;endArrow=block;rounded=0;edgeStyle=orthogonalEdgeStyle;curved=0;rounded=0;entryX=1;entryY=0;entryDx=0;entryDy=5;entryPerimeter=0;exitX=1;exitY=1;exitDx=0;exitDy=-5;exitPerimeter=0;" parent="1" source="hHbTxy1jI1l-UyztQn6d-85" target="hHbTxy1jI1l-UyztQn6d-89" edge="1">
          <mxGeometry relative="1" as="geometry">
            <mxPoint x="1420" y="635" as="sourcePoint" />
            <Array as="points">
              <mxPoint x="1450" y="635" />
              <mxPoint x="1450" y="660" />
              <mxPoint x="1425" y="660" />
            </Array>
          </mxGeometry>
        </mxCell>
        <mxCell id="hHbTxy1jI1l-UyztQn6d-91" value="" style="rounded=0;orthogonalLoop=1;jettySize=auto;html=1;endArrow=none;endFill=0;exitX=0.5;exitY=1;exitDx=0;exitDy=0;" parent="1" source="hHbTxy1jI1l-UyztQn6d-85" target="hHbTxy1jI1l-UyztQn6d-89" edge="1">
          <mxGeometry relative="1" as="geometry">
            <mxPoint x="1420" y="840" as="targetPoint" />
            <mxPoint x="1420" y="640" as="sourcePoint" />
          </mxGeometry>
        </mxCell>
        <mxCell id="hHbTxy1jI1l-UyztQn6d-89" value="" style="html=1;points=[[0,0,0,0,5],[0,1,0,0,-5],[1,0,0,0,5],[1,1,0,0,-5]];perimeter=orthogonalPerimeter;outlineConnect=0;targetShapes=umlLifeline;portConstraint=eastwest;newEdgeStyle={&quot;curved&quot;:0,&quot;rounded&quot;:0};" parent="1" vertex="1">
          <mxGeometry x="1415" y="655" width="10" height="25" as="geometry" />
        </mxCell>
        <mxCell id="hHbTxy1jI1l-UyztQn6d-92" value="REDIRECT &quot;/callback?code&quot; " style="html=1;verticalAlign=bottom;endArrow=open;dashed=1;endSize=8;curved=0;rounded=0;entryX=1;entryY=0;entryDx=0;entryDy=5;entryPerimeter=0;exitX=0;exitY=1;exitDx=0;exitDy=-5;exitPerimeter=0;" parent="1" source="hHbTxy1jI1l-UyztQn6d-89" target="hHbTxy1jI1l-UyztQn6d-93" edge="1">
          <mxGeometry relative="1" as="geometry">
            <mxPoint x="1415" y="680" as="sourcePoint" />
            <mxPoint x="1335" y="680" as="targetPoint" />
          </mxGeometry>
        </mxCell>
        <mxCell id="hHbTxy1jI1l-UyztQn6d-94" value="" style="rounded=0;orthogonalLoop=1;jettySize=auto;html=1;endArrow=none;endFill=0;exitX=0.5;exitY=1;exitDx=0;exitDy=0;" parent="1" source="hHbTxy1jI1l-UyztQn6d-81" target="hHbTxy1jI1l-UyztQn6d-93" edge="1">
          <mxGeometry relative="1" as="geometry">
            <mxPoint x="1100" y="840" as="targetPoint" />
            <mxPoint x="1100" y="630" as="sourcePoint" />
          </mxGeometry>
        </mxCell>
        <mxCell id="hHbTxy1jI1l-UyztQn6d-95" value="" style="rounded=0;orthogonalLoop=1;jettySize=auto;html=1;endArrow=none;endFill=0;exitX=0.5;exitY=1;exitDx=0;exitDy=0;" parent="1" source="hHbTxy1jI1l-UyztQn6d-81" target="hHbTxy1jI1l-UyztQn6d-93" edge="1">
          <mxGeometry relative="1" as="geometry">
            <mxPoint x="1100" y="720" as="targetPoint" />
            <mxPoint x="1100" y="580" as="sourcePoint" />
          </mxGeometry>
        </mxCell>
        <mxCell id="hHbTxy1jI1l-UyztQn6d-93" value="" style="html=1;points=[[0,0,0,0,5],[0,1,0,0,-5],[1,0,0,0,5],[1,1,0,0,-5]];perimeter=orthogonalPerimeter;outlineConnect=0;targetShapes=umlLifeline;portConstraint=eastwest;newEdgeStyle={&quot;curved&quot;:0,&quot;rounded&quot;:0};" parent="1" vertex="1">
          <mxGeometry x="1095" y="670" width="10" height="30" as="geometry" />
        </mxCell>
        <mxCell id="hHbTxy1jI1l-UyztQn6d-96" value="" style="rounded=0;orthogonalLoop=1;jettySize=auto;html=1;endArrow=none;endFill=0;exitX=0.5;exitY=1;exitDx=0;exitDy=0;" parent="1" target="hHbTxy1jI1l-UyztQn6d-81" edge="1">
          <mxGeometry relative="1" as="geometry">
            <mxPoint x="1100" y="670" as="targetPoint" />
            <mxPoint x="1100" y="580" as="sourcePoint" />
          </mxGeometry>
        </mxCell>
        <mxCell id="hHbTxy1jI1l-UyztQn6d-81" value="" style="html=1;points=[[0,0,0,0,5],[0,1,0,0,-5],[1,0,0,0,5],[1,1,0,0,-5]];perimeter=orthogonalPerimeter;outlineConnect=0;targetShapes=umlLifeline;portConstraint=eastwest;newEdgeStyle={&quot;curved&quot;:0,&quot;rounded&quot;:0};" parent="1" vertex="1">
          <mxGeometry x="1095" y="600" width="10" height="30" as="geometry" />
        </mxCell>
        <mxCell id="hHbTxy1jI1l-UyztQn6d-97" value="User Agent" style="rounded=0;whiteSpace=wrap;html=1;" parent="1" vertex="1">
          <mxGeometry x="1040" y="750" width="120" height="60" as="geometry" />
        </mxCell>
        <mxCell id="hHbTxy1jI1l-UyztQn6d-98" value="Client" style="rounded=0;whiteSpace=wrap;html=1;" parent="1" vertex="1">
          <mxGeometry x="1205" y="750" width="120" height="60" as="geometry" />
        </mxCell>
        <mxCell id="hHbTxy1jI1l-UyztQn6d-99" value="Auth Server" style="rounded=0;whiteSpace=wrap;html=1;" parent="1" vertex="1">
          <mxGeometry x="1360" y="750" width="120" height="60" as="geometry" />
        </mxCell>
        <mxCell id="hHbTxy1jI1l-UyztQn6d-100" value="Resource Server" style="rounded=0;whiteSpace=wrap;html=1;" parent="1" vertex="1">
          <mxGeometry x="1520" y="750" width="120" height="60" as="geometry" />
        </mxCell>
        <mxCell id="hHbTxy1jI1l-UyztQn6d-101" value="Resource Owner" style="shape=umlActor;verticalLabelPosition=bottom;verticalAlign=top;html=1;outlineConnect=0;" parent="1" vertex="1">
          <mxGeometry x="930" y="750" width="20" height="40" as="geometry" />
        </mxCell>
        <mxCell id="hHbTxy1jI1l-UyztQn6d-105" style="rounded=0;orthogonalLoop=1;jettySize=auto;html=1;endArrow=none;endFill=0;exitX=0.5;exitY=1;exitDx=0;exitDy=0;" parent="1" source="hHbTxy1jI1l-UyztQn6d-100" edge="1">
          <mxGeometry relative="1" as="geometry">
            <mxPoint x="1580" y="1010" as="targetPoint" />
            <mxPoint x="1581" y="826.25" as="sourcePoint" />
          </mxGeometry>
        </mxCell>
        <mxCell id="hHbTxy1jI1l-UyztQn6d-109" style="rounded=0;orthogonalLoop=1;jettySize=auto;html=1;endArrow=none;endFill=0;" parent="1" edge="1">
          <mxGeometry relative="1" as="geometry">
            <mxPoint x="940" y="1010" as="targetPoint" />
            <mxPoint x="940" y="816.25" as="sourcePoint" />
          </mxGeometry>
        </mxCell>
        <mxCell id="hHbTxy1jI1l-UyztQn6d-111" value="&lt;div&gt;POST &quot;/connect,&amp;nbsp;&lt;/div&gt;&lt;div&gt;{code, code_verifier}&quot;&lt;/div&gt;" style="html=1;verticalAlign=bottom;endArrow=block;curved=0;rounded=0;entryX=0;entryY=0;entryDx=0;entryDy=5;exitX=1;exitY=1;exitDx=0;exitDy=-5;exitPerimeter=0;" parent="1" source="hHbTxy1jI1l-UyztQn6d-197" target="hHbTxy1jI1l-UyztQn6d-110" edge="1">
          <mxGeometry relative="1" as="geometry">
            <mxPoint x="1100" y="851.25" as="sourcePoint" />
          </mxGeometry>
        </mxCell>
        <mxCell id="hHbTxy1jI1l-UyztQn6d-113" value="" style="rounded=0;orthogonalLoop=1;jettySize=auto;html=1;endArrow=none;endFill=0;exitX=0.5;exitY=1;exitDx=0;exitDy=0;" parent="1" source="hHbTxy1jI1l-UyztQn6d-98" target="hHbTxy1jI1l-UyztQn6d-110" edge="1">
          <mxGeometry relative="1" as="geometry">
            <mxPoint x="1265" y="976.25" as="targetPoint" />
            <mxPoint x="1265" y="810.25" as="sourcePoint" />
          </mxGeometry>
        </mxCell>
        <mxCell id="hHbTxy1jI1l-UyztQn6d-110" value="" style="html=1;points=[[0,0,0,0,5],[0,1,0,0,-5],[1,0,0,0,5],[1,1,0,0,-5]];perimeter=orthogonalPerimeter;outlineConnect=0;targetShapes=umlLifeline;portConstraint=eastwest;newEdgeStyle={&quot;curved&quot;:0,&quot;rounded&quot;:0};" parent="1" vertex="1">
          <mxGeometry x="1260" y="846.25" width="10" height="20" as="geometry" />
        </mxCell>
        <mxCell id="hHbTxy1jI1l-UyztQn6d-115" value="&lt;div&gt;POST &quot;/openid-connect/token?&lt;/div&gt;&lt;div&gt;code_verifier&amp;amp;redirect_uri&quot;&lt;/div&gt;" style="html=1;verticalAlign=bottom;endArrow=block;curved=0;rounded=0;entryX=0;entryY=0;entryDx=0;entryDy=5;exitX=1;exitY=1;exitDx=0;exitDy=-5;exitPerimeter=0;" parent="1" source="hHbTxy1jI1l-UyztQn6d-110" target="hHbTxy1jI1l-UyztQn6d-114" edge="1">
          <mxGeometry relative="1" as="geometry">
            <mxPoint x="1300" y="861.25" as="sourcePoint" />
          </mxGeometry>
        </mxCell>
        <mxCell id="hHbTxy1jI1l-UyztQn6d-117" value="" style="rounded=0;orthogonalLoop=1;jettySize=auto;html=1;endArrow=none;endFill=0;exitX=0.5;exitY=1;exitDx=0;exitDy=0;" parent="1" source="hHbTxy1jI1l-UyztQn6d-99" target="hHbTxy1jI1l-UyztQn6d-114" edge="1">
          <mxGeometry relative="1" as="geometry">
            <mxPoint x="1420" y="986.25" as="targetPoint" />
            <mxPoint x="1420" y="810.25" as="sourcePoint" />
          </mxGeometry>
        </mxCell>
        <mxCell id="hHbTxy1jI1l-UyztQn6d-114" value="" style="html=1;points=[[0,0,0,0,5],[0,1,0,0,-5],[1,0,0,0,5],[1,1,0,0,-5]];perimeter=orthogonalPerimeter;outlineConnect=0;targetShapes=umlLifeline;portConstraint=eastwest;newEdgeStyle={&quot;curved&quot;:0,&quot;rounded&quot;:0};" parent="1" vertex="1">
          <mxGeometry x="1415" y="856.25" width="10" height="20" as="geometry" />
        </mxCell>
        <mxCell id="hHbTxy1jI1l-UyztQn6d-120" value="" style="rounded=0;orthogonalLoop=1;jettySize=auto;html=1;endArrow=none;endFill=0;exitX=0.5;exitY=1;exitDx=0;exitDy=0;" parent="1" source="hHbTxy1jI1l-UyztQn6d-114" edge="1">
          <mxGeometry relative="1" as="geometry">
            <mxPoint x="1420" y="1010" as="targetPoint" />
            <mxPoint x="1420" y="876.25" as="sourcePoint" />
          </mxGeometry>
        </mxCell>
        <mxCell id="hHbTxy1jI1l-UyztQn6d-127" value="" style="rounded=0;orthogonalLoop=1;jettySize=auto;html=1;endArrow=none;endFill=0;exitX=0.5;exitY=1;exitDx=0;exitDy=0;" parent="1" source="hHbTxy1jI1l-UyztQn6d-110" edge="1">
          <mxGeometry relative="1" as="geometry">
            <mxPoint x="1265" y="1010" as="targetPoint" />
            <mxPoint x="1265" y="866.25" as="sourcePoint" />
          </mxGeometry>
        </mxCell>
        <mxCell id="hHbTxy1jI1l-UyztQn6d-130" value="" style="rounded=0;orthogonalLoop=1;jettySize=auto;html=1;endArrow=none;endFill=0;exitX=0.5;exitY=1;exitDx=0;exitDy=0;" parent="1" source="hHbTxy1jI1l-UyztQn6d-197" edge="1">
          <mxGeometry relative="1" as="geometry">
            <mxPoint x="1100" y="1010" as="targetPoint" />
            <mxPoint x="1100" y="810.25" as="sourcePoint" />
          </mxGeometry>
        </mxCell>
        <mxCell id="hHbTxy1jI1l-UyztQn6d-160" value="" style="rounded=0;orthogonalLoop=1;jettySize=auto;html=1;endArrow=none;endFill=0;exitX=0.5;exitY=1;exitDx=0;exitDy=0;" parent="1" source="hHbTxy1jI1l-UyztQn6d-26" edge="1">
          <mxGeometry relative="1" as="geometry">
            <mxPoint x="1265" y="480" as="targetPoint" />
            <mxPoint x="1265" y="370" as="sourcePoint" />
          </mxGeometry>
        </mxCell>
        <mxCell id="hHbTxy1jI1l-UyztQn6d-161" value="" style="rounded=0;orthogonalLoop=1;jettySize=auto;html=1;endArrow=none;endFill=0;exitX=0.5;exitY=1;exitDx=0;exitDy=0;" parent="1" source="hHbTxy1jI1l-UyztQn6d-40" edge="1">
          <mxGeometry relative="1" as="geometry">
            <mxPoint x="1420" y="480" as="targetPoint" />
            <mxPoint x="1420" y="420" as="sourcePoint" />
          </mxGeometry>
        </mxCell>
        <mxCell id="hHbTxy1jI1l-UyztQn6d-198" value="" style="rounded=0;orthogonalLoop=1;jettySize=auto;html=1;endArrow=none;endFill=0;exitX=0.5;exitY=1;exitDx=0;exitDy=0;" parent="1" source="hHbTxy1jI1l-UyztQn6d-97" target="hHbTxy1jI1l-UyztQn6d-197" edge="1">
          <mxGeometry relative="1" as="geometry">
            <mxPoint x="1100" y="906.25" as="targetPoint" />
            <mxPoint x="1100" y="810" as="sourcePoint" />
          </mxGeometry>
        </mxCell>
        <mxCell id="hHbTxy1jI1l-UyztQn6d-197" value="" style="html=1;points=[[0,0,0,0,5],[0,1,0,0,-5],[1,0,0,0,5],[1,1,0,0,-5]];perimeter=orthogonalPerimeter;outlineConnect=0;targetShapes=umlLifeline;portConstraint=eastwest;newEdgeStyle={&quot;curved&quot;:0,&quot;rounded&quot;:0};" parent="1" vertex="1">
          <mxGeometry x="1095" y="820" width="10" height="36.25" as="geometry" />
        </mxCell>
        <mxCell id="hHbTxy1jI1l-UyztQn6d-199" value="&lt;b style=&quot;font-size: 15px;&quot;&gt;1.&lt;br&gt;&lt;/b&gt;" style="text;html=1;align=center;verticalAlign=middle;whiteSpace=wrap;rounded=0;" parent="1" vertex="1">
          <mxGeometry x="880" y="120" width="60" height="30" as="geometry" />
        </mxCell>
        <mxCell id="hHbTxy1jI1l-UyztQn6d-200" value="&lt;b style=&quot;font-size: 12px;&quot;&gt;2. &amp;amp; 3.&lt;/b&gt;" style="text;html=1;align=center;verticalAlign=middle;whiteSpace=wrap;rounded=0;fontSize=12;" parent="1" vertex="1">
          <mxGeometry x="880" y="490" width="60" height="30" as="geometry" />
        </mxCell>
        <mxCell id="hHbTxy1jI1l-UyztQn6d-201" value="&lt;div&gt;Generate token&amp;nbsp;&lt;/div&gt;&lt;div&gt;and verify with&amp;nbsp;&lt;/div&gt;&lt;div&gt;code_verifier&lt;/div&gt;" style="html=1;align=left;spacingLeft=2;endArrow=block;rounded=0;edgeStyle=orthogonalEdgeStyle;curved=0;rounded=0;exitX=1;exitY=1;exitDx=0;exitDy=-5;exitPerimeter=0;" parent="1" source="hHbTxy1jI1l-UyztQn6d-114" target="hHbTxy1jI1l-UyztQn6d-203" edge="1">
          <mxGeometry relative="1" as="geometry">
            <mxPoint x="1425" y="871.25" as="sourcePoint" />
            <Array as="points">
              <mxPoint x="1470" y="871" />
              <mxPoint x="1470" y="906" />
            </Array>
          </mxGeometry>
        </mxCell>
        <mxCell id="hHbTxy1jI1l-UyztQn6d-202" value="" style="rounded=0;orthogonalLoop=1;jettySize=auto;html=1;endArrow=none;endFill=0;exitX=0.5;exitY=1;exitDx=0;exitDy=0;" parent="1" target="hHbTxy1jI1l-UyztQn6d-203" edge="1">
          <mxGeometry relative="1" as="geometry">
            <mxPoint x="1420" y="986.25" as="targetPoint" />
            <mxPoint x="1420" y="876.25" as="sourcePoint" />
          </mxGeometry>
        </mxCell>
        <mxCell id="hHbTxy1jI1l-UyztQn6d-203" value="" style="html=1;points=[[0,0,0,0,5],[0,1,0,0,-5],[1,0,0,0,5],[1,1,0,0,-5]];perimeter=orthogonalPerimeter;outlineConnect=0;targetShapes=umlLifeline;portConstraint=eastwest;newEdgeStyle={&quot;curved&quot;:0,&quot;rounded&quot;:0};" parent="1" vertex="1">
          <mxGeometry x="1415" y="896.25" width="10" height="30" as="geometry" />
        </mxCell>
        <mxCell id="hHbTxy1jI1l-UyztQn6d-204" value="OK token, refresh_token" style="html=1;verticalAlign=bottom;endArrow=open;dashed=1;endSize=8;curved=0;rounded=0;exitX=0;exitY=1;exitDx=0;exitDy=-5;exitPerimeter=0;entryX=1;entryY=0;entryDx=0;entryDy=5;entryPerimeter=0;" parent="1" source="hHbTxy1jI1l-UyztQn6d-203" target="hHbTxy1jI1l-UyztQn6d-205" edge="1">
          <mxGeometry relative="1" as="geometry">
            <mxPoint x="1420" y="916.25" as="sourcePoint" />
            <mxPoint x="1290" y="921.25" as="targetPoint" />
          </mxGeometry>
        </mxCell>
        <mxCell id="hHbTxy1jI1l-UyztQn6d-205" value="" style="html=1;points=[[0,0,0,0,5],[0,1,0,0,-5],[1,0,0,0,5],[1,1,0,0,-5]];perimeter=orthogonalPerimeter;outlineConnect=0;targetShapes=umlLifeline;portConstraint=eastwest;newEdgeStyle={&quot;curved&quot;:0,&quot;rounded&quot;:0};" parent="1" vertex="1">
          <mxGeometry x="1260" y="916.25" width="10" height="20" as="geometry" />
        </mxCell>
        <mxCell id="hHbTxy1jI1l-UyztQn6d-206" value="OK token, refresh_token" style="html=1;verticalAlign=bottom;endArrow=open;dashed=1;endSize=8;curved=0;rounded=0;entryX=1;entryY=0;entryDx=0;entryDy=5;entryPerimeter=0;" parent="1" source="hHbTxy1jI1l-UyztQn6d-205" target="hHbTxy1jI1l-UyztQn6d-207" edge="1">
          <mxGeometry relative="1" as="geometry">
            <mxPoint x="1260" y="931.25" as="sourcePoint" />
            <mxPoint x="1135" y="931.25" as="targetPoint" />
          </mxGeometry>
        </mxCell>
        <mxCell id="hHbTxy1jI1l-UyztQn6d-207" value="" style="html=1;points=[[0,0,0,0,5],[0,1,0,0,-5],[1,0,0,0,5],[1,1,0,0,-5]];perimeter=orthogonalPerimeter;outlineConnect=0;targetShapes=umlLifeline;portConstraint=eastwest;newEdgeStyle={&quot;curved&quot;:0,&quot;rounded&quot;:0};" parent="1" vertex="1">
          <mxGeometry x="1095" y="926.25" width="10" height="20" as="geometry" />
        </mxCell>
        <mxCell id="hHbTxy1jI1l-UyztQn6d-208" value="&lt;div&gt;Store token and&lt;/div&gt;&lt;div&gt;refresh_token&lt;/div&gt;" style="html=1;align=left;spacingLeft=2;endArrow=block;rounded=0;edgeStyle=orthogonalEdgeStyle;curved=0;rounded=0;exitX=1;exitY=1;exitDx=0;exitDy=-5;exitPerimeter=0;" parent="1" source="hHbTxy1jI1l-UyztQn6d-207" target="hHbTxy1jI1l-UyztQn6d-210" edge="1">
          <mxGeometry relative="1" as="geometry">
            <mxPoint x="1110" y="946.25" as="sourcePoint" />
            <Array as="points">
              <mxPoint x="1140" y="941.25" />
              <mxPoint x="1140" y="976.25" />
            </Array>
          </mxGeometry>
        </mxCell>
        <mxCell id="hHbTxy1jI1l-UyztQn6d-209" value="" style="rounded=0;orthogonalLoop=1;jettySize=auto;html=1;endArrow=none;endFill=0;exitX=0.5;exitY=1;exitDx=0;exitDy=0;" parent="1" source="hHbTxy1jI1l-UyztQn6d-207" target="hHbTxy1jI1l-UyztQn6d-210" edge="1">
          <mxGeometry relative="1" as="geometry">
            <mxPoint x="1100" y="1026.25" as="targetPoint" />
            <mxPoint x="1100" y="946.25" as="sourcePoint" />
          </mxGeometry>
        </mxCell>
        <mxCell id="hHbTxy1jI1l-UyztQn6d-210" value="" style="html=1;points=[[0,0,0,0,5],[0,1,0,0,-5],[1,0,0,0,5],[1,1,0,0,-5]];perimeter=orthogonalPerimeter;outlineConnect=0;targetShapes=umlLifeline;portConstraint=eastwest;newEdgeStyle={&quot;curved&quot;:0,&quot;rounded&quot;:0};" parent="1" vertex="1">
          <mxGeometry x="1095" y="966.25" width="10" height="20" as="geometry" />
        </mxCell>
        <mxCell id="hHbTxy1jI1l-UyztQn6d-212" value="&lt;b&gt;4 &amp;amp; 5&lt;br&gt;&lt;/b&gt;" style="text;html=1;align=center;verticalAlign=middle;whiteSpace=wrap;rounded=0;" parent="1" vertex="1">
          <mxGeometry x="880" y="730" width="60" height="30" as="geometry" />
        </mxCell>
        <mxCell id="6qDOulROVMJnl0OCeZN9-1" value="User Agent" style="rounded=0;whiteSpace=wrap;html=1;" vertex="1" parent="1">
          <mxGeometry x="1040" y="1130" width="120" height="60" as="geometry" />
        </mxCell>
        <mxCell id="6qDOulROVMJnl0OCeZN9-2" value="Client" style="rounded=0;whiteSpace=wrap;html=1;" vertex="1" parent="1">
          <mxGeometry x="1205" y="1130" width="120" height="60" as="geometry" />
        </mxCell>
        <mxCell id="6qDOulROVMJnl0OCeZN9-3" value="Auth Server" style="rounded=0;whiteSpace=wrap;html=1;" vertex="1" parent="1">
          <mxGeometry x="1360" y="1130" width="120" height="60" as="geometry" />
        </mxCell>
        <mxCell id="6qDOulROVMJnl0OCeZN9-4" value="Resource Server" style="rounded=0;whiteSpace=wrap;html=1;" vertex="1" parent="1">
          <mxGeometry x="1520" y="1130" width="120" height="60" as="geometry" />
        </mxCell>
        <mxCell id="6qDOulROVMJnl0OCeZN9-5" value="Resource Owner" style="shape=umlActor;verticalLabelPosition=bottom;verticalAlign=top;html=1;outlineConnect=0;" vertex="1" parent="1">
          <mxGeometry x="930" y="1130" width="20" height="40" as="geometry" />
        </mxCell>
        <mxCell id="6qDOulROVMJnl0OCeZN9-7" style="rounded=0;orthogonalLoop=1;jettySize=auto;html=1;endArrow=none;endFill=0;" edge="1" parent="1">
          <mxGeometry relative="1" as="geometry">
            <mxPoint x="940" y="1400" as="targetPoint" />
            <mxPoint x="940" y="1196.25" as="sourcePoint" />
          </mxGeometry>
        </mxCell>
        <mxCell id="6qDOulROVMJnl0OCeZN9-9" value="" style="rounded=0;orthogonalLoop=1;jettySize=auto;html=1;endArrow=none;endFill=0;exitX=0.5;exitY=1;exitDx=0;exitDy=0;" edge="1" parent="1" source="6qDOulROVMJnl0OCeZN9-51">
          <mxGeometry relative="1" as="geometry">
            <mxPoint x="1265" y="1400" as="targetPoint" />
            <mxPoint x="1265" y="1190.25" as="sourcePoint" />
          </mxGeometry>
        </mxCell>
        <mxCell id="6qDOulROVMJnl0OCeZN9-11" value="" style="rounded=0;orthogonalLoop=1;jettySize=auto;html=1;endArrow=none;endFill=0;exitX=0.5;exitY=1;exitDx=0;exitDy=0;" edge="1" parent="1" source="6qDOulROVMJnl0OCeZN9-26">
          <mxGeometry relative="1" as="geometry">
            <mxPoint x="1420" y="1400" as="targetPoint" />
            <mxPoint x="1420" y="1190.25" as="sourcePoint" />
          </mxGeometry>
        </mxCell>
        <mxCell id="6qDOulROVMJnl0OCeZN9-14" value="" style="rounded=0;orthogonalLoop=1;jettySize=auto;html=1;endArrow=none;endFill=0;exitX=0.5;exitY=1;exitDx=0;exitDy=0;" edge="1" parent="1" source="6qDOulROVMJnl0OCeZN9-30">
          <mxGeometry relative="1" as="geometry">
            <mxPoint x="1100" y="1400" as="targetPoint" />
            <mxPoint x="1100" y="1190" as="sourcePoint" />
          </mxGeometry>
        </mxCell>
        <mxCell id="6qDOulROVMJnl0OCeZN9-16" value="&lt;b&gt;6.&lt;/b&gt;" style="text;html=1;align=center;verticalAlign=middle;whiteSpace=wrap;rounded=0;" vertex="1" parent="1">
          <mxGeometry x="880" y="1110" width="60" height="30" as="geometry" />
        </mxCell>
        <mxCell id="6qDOulROVMJnl0OCeZN9-18" value="" style="rounded=0;orthogonalLoop=1;jettySize=auto;html=1;endArrow=none;endFill=0;exitX=0.5;exitY=1;exitDx=0;exitDy=0;" edge="1" parent="1" source="6qDOulROVMJnl0OCeZN9-43">
          <mxGeometry relative="1" as="geometry">
            <mxPoint x="1580" y="1400" as="targetPoint" />
            <mxPoint x="1580" y="1190" as="sourcePoint" />
          </mxGeometry>
        </mxCell>
        <mxCell id="6qDOulROVMJnl0OCeZN9-27" value="GET &quot;openid-connect/certs&quot;" style="html=1;verticalAlign=bottom;endArrow=block;curved=0;rounded=0;entryX=1;entryY=0;entryDx=0;entryDy=5;" edge="1" target="6qDOulROVMJnl0OCeZN9-26" parent="1">
          <mxGeometry relative="1" as="geometry">
            <mxPoint x="1580" y="1215" as="sourcePoint" />
          </mxGeometry>
        </mxCell>
        <mxCell id="6qDOulROVMJnl0OCeZN9-28" value="OK JWKS" style="html=1;verticalAlign=bottom;endArrow=open;dashed=1;endSize=8;curved=0;rounded=0;exitX=1;exitY=1;exitDx=0;exitDy=-5;" edge="1" source="6qDOulROVMJnl0OCeZN9-26" parent="1">
          <mxGeometry relative="1" as="geometry">
            <mxPoint x="1580" y="1235" as="targetPoint" />
          </mxGeometry>
        </mxCell>
        <mxCell id="6qDOulROVMJnl0OCeZN9-29" value="" style="rounded=0;orthogonalLoop=1;jettySize=auto;html=1;endArrow=none;endFill=0;exitX=0.5;exitY=1;exitDx=0;exitDy=0;" edge="1" parent="1" source="6qDOulROVMJnl0OCeZN9-3" target="6qDOulROVMJnl0OCeZN9-26">
          <mxGeometry relative="1" as="geometry">
            <mxPoint x="1420" y="1330" as="targetPoint" />
            <mxPoint x="1420" y="1190" as="sourcePoint" />
          </mxGeometry>
        </mxCell>
        <mxCell id="6qDOulROVMJnl0OCeZN9-26" value="" style="html=1;points=[[0,0,0,0,5],[0,1,0,0,-5],[1,0,0,0,5],[1,1,0,0,-5]];perimeter=orthogonalPerimeter;outlineConnect=0;targetShapes=umlLifeline;portConstraint=eastwest;newEdgeStyle={&quot;curved&quot;:0,&quot;rounded&quot;:0};" vertex="1" parent="1">
          <mxGeometry x="1415" y="1210" width="10" height="30" as="geometry" />
        </mxCell>
        <mxCell id="6qDOulROVMJnl0OCeZN9-31" value="Navigate to Profile Page" style="html=1;verticalAlign=bottom;endArrow=block;curved=0;rounded=0;entryX=0;entryY=0;entryDx=0;entryDy=5;" edge="1" target="6qDOulROVMJnl0OCeZN9-30" parent="1">
          <mxGeometry relative="1" as="geometry">
            <mxPoint x="940" y="1255" as="sourcePoint" />
          </mxGeometry>
        </mxCell>
        <mxCell id="6qDOulROVMJnl0OCeZN9-33" value="" style="rounded=0;orthogonalLoop=1;jettySize=auto;html=1;endArrow=none;endFill=0;exitX=0.5;exitY=1;exitDx=0;exitDy=0;" edge="1" parent="1" source="6qDOulROVMJnl0OCeZN9-1" target="6qDOulROVMJnl0OCeZN9-30">
          <mxGeometry relative="1" as="geometry">
            <mxPoint x="1100" y="1390" as="targetPoint" />
            <mxPoint x="1100" y="1190" as="sourcePoint" />
          </mxGeometry>
        </mxCell>
        <mxCell id="6qDOulROVMJnl0OCeZN9-30" value="" style="html=1;points=[[0,0,0,0,5],[0,1,0,0,-5],[1,0,0,0,5],[1,1,0,0,-5]];perimeter=orthogonalPerimeter;outlineConnect=0;targetShapes=umlLifeline;portConstraint=eastwest;newEdgeStyle={&quot;curved&quot;:0,&quot;rounded&quot;:0};" vertex="1" parent="1">
          <mxGeometry x="1095" y="1250" width="10" height="30" as="geometry" />
        </mxCell>
        <mxCell id="6qDOulROVMJnl0OCeZN9-36" value="GET &quot;/travel&quot;" style="html=1;verticalAlign=bottom;endArrow=block;curved=0;rounded=0;entryX=0;entryY=0;entryDx=0;entryDy=5;exitX=1;exitY=1;exitDx=0;exitDy=-5;exitPerimeter=0;" edge="1" target="6qDOulROVMJnl0OCeZN9-35" parent="1" source="6qDOulROVMJnl0OCeZN9-30">
          <mxGeometry relative="1" as="geometry">
            <mxPoint x="1160" y="1285" as="sourcePoint" />
          </mxGeometry>
        </mxCell>
        <mxCell id="6qDOulROVMJnl0OCeZN9-38" value="" style="rounded=0;orthogonalLoop=1;jettySize=auto;html=1;endArrow=none;endFill=0;exitX=0.5;exitY=1;exitDx=0;exitDy=0;" edge="1" parent="1" source="6qDOulROVMJnl0OCeZN9-2" target="6qDOulROVMJnl0OCeZN9-35">
          <mxGeometry relative="1" as="geometry">
            <mxPoint x="1265" y="1390" as="targetPoint" />
            <mxPoint x="1265" y="1190" as="sourcePoint" />
          </mxGeometry>
        </mxCell>
        <mxCell id="6qDOulROVMJnl0OCeZN9-35" value="" style="html=1;points=[[0,0,0,0,5],[0,1,0,0,-5],[1,0,0,0,5],[1,1,0,0,-5]];perimeter=orthogonalPerimeter;outlineConnect=0;targetShapes=umlLifeline;portConstraint=eastwest;newEdgeStyle={&quot;curved&quot;:0,&quot;rounded&quot;:0};" vertex="1" parent="1">
          <mxGeometry x="1260" y="1270" width="10" height="30" as="geometry" />
        </mxCell>
        <mxCell id="6qDOulROVMJnl0OCeZN9-40" value="GET &quot;/destinations&quot;" style="html=1;verticalAlign=bottom;endArrow=block;curved=0;rounded=0;entryX=0;entryY=0;entryDx=0;entryDy=5;exitX=1;exitY=1;exitDx=0;exitDy=-5;exitPerimeter=0;" edge="1" target="6qDOulROVMJnl0OCeZN9-39" parent="1" source="6qDOulROVMJnl0OCeZN9-35">
          <mxGeometry relative="1" as="geometry">
            <mxPoint x="1505" y="1295" as="sourcePoint" />
          </mxGeometry>
        </mxCell>
        <mxCell id="6qDOulROVMJnl0OCeZN9-42" value="" style="rounded=0;orthogonalLoop=1;jettySize=auto;html=1;endArrow=none;endFill=0;exitX=0.5;exitY=1;exitDx=0;exitDy=0;" edge="1" parent="1" source="6qDOulROVMJnl0OCeZN9-4" target="6qDOulROVMJnl0OCeZN9-39">
          <mxGeometry relative="1" as="geometry">
            <mxPoint x="1580" y="1390" as="targetPoint" />
            <mxPoint x="1580" y="1190" as="sourcePoint" />
          </mxGeometry>
        </mxCell>
        <mxCell id="6qDOulROVMJnl0OCeZN9-39" value="" style="html=1;points=[[0,0,0,0,5],[0,1,0,0,-5],[1,0,0,0,5],[1,1,0,0,-5]];perimeter=orthogonalPerimeter;outlineConnect=0;targetShapes=umlLifeline;portConstraint=eastwest;newEdgeStyle={&quot;curved&quot;:0,&quot;rounded&quot;:0};" vertex="1" parent="1">
          <mxGeometry x="1575" y="1290" width="10" height="20" as="geometry" />
        </mxCell>
        <mxCell id="6qDOulROVMJnl0OCeZN9-44" value="&lt;div&gt;Validate Token&amp;nbsp;&lt;/div&gt;&lt;div&gt;with JWKS&lt;/div&gt;" style="html=1;align=left;spacingLeft=2;endArrow=block;rounded=0;edgeStyle=orthogonalEdgeStyle;curved=0;rounded=0;entryX=1;entryY=0;entryDx=0;entryDy=5;entryPerimeter=0;exitX=1;exitY=1;exitDx=0;exitDy=-5;exitPerimeter=0;" edge="1" target="6qDOulROVMJnl0OCeZN9-43" parent="1" source="6qDOulROVMJnl0OCeZN9-39">
          <mxGeometry relative="1" as="geometry">
            <mxPoint x="1610" y="1310" as="sourcePoint" />
            <Array as="points">
              <mxPoint x="1620" y="1305" />
              <mxPoint x="1620" y="1325" />
            </Array>
          </mxGeometry>
        </mxCell>
        <mxCell id="6qDOulROVMJnl0OCeZN9-45" value="" style="rounded=0;orthogonalLoop=1;jettySize=auto;html=1;endArrow=none;endFill=0;exitX=0.5;exitY=1;exitDx=0;exitDy=0;" edge="1" parent="1" source="6qDOulROVMJnl0OCeZN9-39" target="6qDOulROVMJnl0OCeZN9-43">
          <mxGeometry relative="1" as="geometry">
            <mxPoint x="1580" y="1390" as="targetPoint" />
            <mxPoint x="1580" y="1310" as="sourcePoint" />
          </mxGeometry>
        </mxCell>
        <mxCell id="6qDOulROVMJnl0OCeZN9-43" value="" style="html=1;points=[[0,0,0,0,5],[0,1,0,0,-5],[1,0,0,0,5],[1,1,0,0,-5]];perimeter=orthogonalPerimeter;outlineConnect=0;targetShapes=umlLifeline;portConstraint=eastwest;newEdgeStyle={&quot;curved&quot;:0,&quot;rounded&quot;:0};" vertex="1" parent="1">
          <mxGeometry x="1575" y="1320" width="10" height="20" as="geometry" />
        </mxCell>
        <mxCell id="6qDOulROVMJnl0OCeZN9-47" value="OK [destinations]" style="html=1;verticalAlign=bottom;endArrow=open;dashed=1;endSize=8;curved=0;rounded=0;exitX=0;exitY=1;exitDx=0;exitDy=-5;exitPerimeter=0;entryX=1;entryY=0;entryDx=0;entryDy=5;entryPerimeter=0;" edge="1" parent="1" source="6qDOulROVMJnl0OCeZN9-43" target="6qDOulROVMJnl0OCeZN9-48">
          <mxGeometry relative="1" as="geometry">
            <mxPoint x="1560" y="1329.88" as="sourcePoint" />
            <mxPoint x="1480" y="1329.88" as="targetPoint" />
          </mxGeometry>
        </mxCell>
        <mxCell id="6qDOulROVMJnl0OCeZN9-50" value="" style="rounded=0;orthogonalLoop=1;jettySize=auto;html=1;endArrow=none;endFill=0;exitX=0.5;exitY=1;exitDx=0;exitDy=0;" edge="1" parent="1" source="6qDOulROVMJnl0OCeZN9-35" target="6qDOulROVMJnl0OCeZN9-48">
          <mxGeometry relative="1" as="geometry">
            <mxPoint x="1265" y="1390" as="targetPoint" />
            <mxPoint x="1265" y="1300" as="sourcePoint" />
          </mxGeometry>
        </mxCell>
        <mxCell id="6qDOulROVMJnl0OCeZN9-48" value="" style="html=1;points=[[0,0,0,0,5],[0,1,0,0,-5],[1,0,0,0,5],[1,1,0,0,-5]];perimeter=orthogonalPerimeter;outlineConnect=0;targetShapes=umlLifeline;portConstraint=eastwest;newEdgeStyle={&quot;curved&quot;:0,&quot;rounded&quot;:0};" vertex="1" parent="1">
          <mxGeometry x="1260" y="1330" width="10" height="20" as="geometry" />
        </mxCell>
        <mxCell id="6qDOulROVMJnl0OCeZN9-52" value="&lt;div&gt;Calculate&amp;nbsp;&lt;/div&gt;&lt;div&gt;Total Distance&lt;br&gt;&lt;/div&gt;" style="html=1;align=left;spacingLeft=2;endArrow=block;rounded=0;edgeStyle=orthogonalEdgeStyle;curved=0;rounded=0;exitX=1;exitY=1;exitDx=0;exitDy=-5;exitPerimeter=0;entryX=1;entryY=0;entryDx=0;entryDy=5;entryPerimeter=0;" edge="1" target="6qDOulROVMJnl0OCeZN9-51" parent="1" source="6qDOulROVMJnl0OCeZN9-48">
          <mxGeometry relative="1" as="geometry">
            <mxPoint x="1280" y="1350" as="sourcePoint" />
            <Array as="points">
              <mxPoint x="1290" y="1345" />
              <mxPoint x="1290" y="1365" />
            </Array>
          </mxGeometry>
        </mxCell>
        <mxCell id="6qDOulROVMJnl0OCeZN9-53" value="" style="rounded=0;orthogonalLoop=1;jettySize=auto;html=1;endArrow=none;endFill=0;exitX=0.5;exitY=1;exitDx=0;exitDy=0;" edge="1" parent="1" source="6qDOulROVMJnl0OCeZN9-48" target="6qDOulROVMJnl0OCeZN9-51">
          <mxGeometry relative="1" as="geometry">
            <mxPoint x="1265" y="1410" as="targetPoint" />
            <mxPoint x="1265" y="1350" as="sourcePoint" />
          </mxGeometry>
        </mxCell>
        <mxCell id="6qDOulROVMJnl0OCeZN9-51" value="" style="html=1;points=[[0,0,0,0,5],[0,1,0,0,-5],[1,0,0,0,5],[1,1,0,0,-5]];perimeter=orthogonalPerimeter;outlineConnect=0;targetShapes=umlLifeline;portConstraint=eastwest;newEdgeStyle={&quot;curved&quot;:0,&quot;rounded&quot;:0};" vertex="1" parent="1">
          <mxGeometry x="1260" y="1360" width="10" height="20" as="geometry" />
        </mxCell>
        <mxCell id="6qDOulROVMJnl0OCeZN9-54" value="OK [destinations], Total Distance" style="html=1;verticalAlign=bottom;endArrow=open;dashed=1;endSize=8;curved=0;rounded=0;exitX=0;exitY=1;exitDx=0;exitDy=-5;exitPerimeter=0;" edge="1" parent="1" source="6qDOulROVMJnl0OCeZN9-51">
          <mxGeometry relative="1" as="geometry">
            <mxPoint x="1240" y="1370" as="sourcePoint" />
            <mxPoint x="1100" y="1375" as="targetPoint" />
          </mxGeometry>
        </mxCell>
      </root>
    </mxGraphModel>
  </diagram>
</mxfile>
